<?xml version="1.0" encoding="UTF-8"?>
<svg id="Layer_2" data-name="Layer 2" xmlns="http://www.w3.org/2000/svg" xmlns:xlink="http://www.w3.org/1999/xlink" viewBox="0 0 500 500">
  <defs>
    <style>
      .cls-1 {
        clip-path: url(#clippath);
      }

      .cls-2 {
        fill: none;
      }

      .cls-3 {
        fill: #1a1a1a;
      }
    </style>
    <clipPath id="clippath">
      <rect class="cls-2" width="500" height="500"/>
    </clipPath>
  </defs>
  <g id="objects">
    <g class="cls-1">
      <path class="cls-3" d="m362.53,503.23l-8-47c.51-3.84.3-7.68.94-9.05.04-.09.09-.21.15-.34,0,0,0,0,0,0,.06-.13.12-.29.19-.46,1.88-4.7,8.1-23.07,8.1-24.63,0-1.67,2.87-7.47,9.72-11.69,6.85-4.21,6.53-7.96,6.53-7.96,0,0-.32-5,0-6.91.32-1.91,8.6-9.86,10.2-12.4s-3.82-7.31-7.96-8.9-24.43,3.07-28.04,3.29c-3.61.21-25.49,7.53-34.3,10.18-5.77,1.74-8.9,3.95-14.34,5.67-.26-.33-.6-.67-1.09-1.01-2.07-1.43-4.19,0-4.19,0-1.65-1.91-2.87-8.69-3.19-13.25-.32-4.56.48-13.3.8-15.69s1.75-6.84,2.81-6.78,1.01,1.96,1.01,1.96c1.54-2.65,1.65-10.28,2.76-11.55,1.12-1.27,2.76.53,2.76.53,1.12-2.23.74-12.72,1.17-13.09.42-.37,4.35,1.27,4.35,1.27,0,0-1.81-2.76-1.91-3.39-.11-.64,2.28,0,2.28,0,0,0,.53-5.72,1.22-6.09s2.34,4.19,2.34,4.19c0,0,1.12-4.98,1.65-4.72.53.27,1.54,3.66,1.54,3.66,0,0-.32-5.99.37-6.36.69-.37,2.12,2.91,2.12,2.91,0,0,1.59-2.91,1.96-5.67.37-2.76.05-5.88.05-5.88,0,0-1.43-.95-1.59-1.75s3.45-.85,3.45-.85c0,0-1.65-3.6-.96-3.71.69-.11,3.19,1.22,3.19,1.22.69-1.54-.05-12.14,1.01-12.08s3.35-.27,3.35-.27c-.64-1.22-2.02-5.56-2.02-5.56.74.21,2.18,0,2.18,0-1.65-2.49-1.96-7.21-1.96-7.21,1.17.48,2.97.21,2.97.21-1.54-1.32-3.29-5.03-3.13-6.36.16-1.32,1.86-3.97,2.23-4.66.37-.69-.48-3.5-.16-4.35.32-.85,2.55.85,2.55.85,0,0-1.81-5.09-2.6-5.83s-3.29-3.76-3.24-4.98c.05-1.22,2.37-1.43,2.37-1.43,0,0-2.37-3.29-2.69-3.66-.32-.37-.21-2.38,0-4.29.21-1.91,2.34-6.2,2.79-7.47.16-.46.18-2.45.14-4.86-.04-2.57-.15-5.61-.21-7.81,0-.05,0-.1,0-.14,0-.11,0-.23,0-.33,0-.09,0-.19,0-.28,0-.09,0-.18,0-.26,0-.12,0-.24,0-.35,0-.05,0-.1,0-.15,0-.16,0-.3,0-.44,0-.04,0-.07,0-.11,0-.1,0-.19,0-.27,0-.04,0-.07,0-.11,0-.07,0-.14,0-.2,0-.03,0-.06,0-.08,0-.08,0-.14.01-.19.16-1.27,3.66-5.78,2.71-8.32-.96-2.54-2.87-3.39-3.61-3.5-.74-.11-1.81.95-1.81.95,0,0,.11-3.02-.58-5.25-.69-2.23-5.47-6.2-6.74-5.88-.09.02-.2.09-.32.17-.04.03-.08.07-.12.1-.09.08-.19.16-.3.26-.05.05-.1.1-.16.16-.11.12-.23.25-.36.39-.05.06-.1.11-.15.18-.16.19-.33.4-.51.63-.02.02-.04.05-.06.07-.42.55-.88,1.18-1.35,1.88,0,.01-.02.03-.03.04-.22.33-.45.68-.68,1.03-.02.02-.03.05-.05.07-.23.36-.47.74-.7,1.12-1.24,2.04-2.41,4.23-3.07,5.98-1.7,4.45-7.12,8.43-8.34,9.06-.99.52-4.23,2.57-6.12,5.43h0c-.19.29-.36.59-.53.9-.04.08-.08.15-.12.23-.15.31-.3.63-.41.96-1.33,3.92-4.94,9.75-5.2,10.02-.27.27-.96.95-3.93,3.55-2.97,2.6-8.28,8.27-7.12,9.27,1.17,1.01,6.05-.05,6.05-.05,0,0,.32,2.6-.16,3.44-.48.85-.11,1.75-.85,2.86-.74,1.11-2.55,2.12-3.82,3.23-1.27,1.11-4.78,1.91-4.78,1.91,0,0,.42.37.42.79s-3.77,2.12-3.77,2.12c0,0,.32.42.58.79.27.37-6.11,2.86-6.96,3.39-.85.53-2.12,2.65-2.12,2.65.21-.53,2.28-1.06,2.44-.79.16.27-2.39,5.09-2.81,5.46-.42.37-1.96.26-2.92.95-.96.69-1.91,1.01-4.46,1.11-2.55.11-6.43.69-6.43.69,0,0,2.5.64,2.34,1.27-.16.64-6.5,2.73-8.92,6.15-.59.84-1.19,1.67-1.79,2.49h0c-2.82,3.81-5.95,7.24-10.58,8.53-.79.22-3.61.69-7.02,1.28-.37.06-.74.13-1.12.2-.03,0-.07.01-.1.02-.36.06-.73.13-1.1.19-.04,0-.08.01-.12.02-.39.07-.79.14-1.19.21-.05,0-.11.02-.16.03-.33.06-.67.12-1,.18-.1.02-.19.04-.29.05-.31.06-.62.12-.92.17-.09.02-.18.03-.27.05-.39.07-.78.15-1.16.23-.01,0-.03,0-.04,0-.35.07-.7.14-1.05.21-.11.02-.21.04-.32.07-.26.05-.52.11-.78.17-.11.02-.22.05-.32.07-.29.06-.58.13-.85.19-.05.01-.11.03-.17.04-.32.08-.64.15-.94.23-.09.02-.17.04-.25.06-.22.06-.43.11-.64.16-.09.02-.19.05-.28.07-.2.06-.4.11-.59.17-.07.02-.14.04-.21.06-.24.07-.47.15-.69.22-.04.02-.08.03-.13.05-.16.06-.32.12-.46.17-.06.02-.11.05-.17.07-.12.05-.23.1-.33.15-.04.02-.09.04-.13.06-.13.07-.24.14-.33.21-2.34,1.85-6.16,6.57-8.18,8.06-2.02,1.48-13.7,5.51-18.8,8.9-5.1,3.39-16.99,24.75-18.43,27.03-.1.16-.22.31-.36.47-.05.05-.1.1-.15.15-.1.1-.2.21-.32.31-.06.06-.13.11-.2.17-.11.09-.23.19-.36.28-.07.06-.15.11-.22.16-.14.1-.27.19-.42.28-.07.05-.14.09-.21.14-.18.12-.37.23-.56.34-.03.02-.07.04-.1.06-.48.27-.97.53-1.45.76,0,0,0,0,0,0-1.59.77-2.98,1.27-2.98,1.27.48,1.8,2.39,2.07,2.39,2.07-1.17,3.29-12,6.47-14.5,6.2-2.5-.26-7.91,2.6-11.26,1.91s-7.27-3.23-7.27-3.23l-.05,1.91c-3.13.16-6.8-2.07-6.8-2.07-.58,2.44,2.39,4.61,2.92,6.09.53,1.48,0,2.44,0,2.44.69,1.17,3.08,1.64,3.08,1.64,0,.58-1.7,1.54-1.7,1.54.48.64,4.78,2.01,4.78,2.01-.48.64-1.65,1.38-1.65,1.38,3.08,1.8,7.38,1.11,7.38,1.11-.16,1.32-1.01,2.33-1.01,2.33l3.03.16,1.27,2.6,4.25-1.01-.74,1.96s6.16-4.4,6.64-3.29,0,3.13,0,3.13c2.28-.42,6.32-4.13,6.69-3.92.37.21-.8,3.97-.8,3.97,0,0,5.04-4.24,5.73-4.24s1.7,3.5,1.7,3.5c0,0,4.19-5.62,4.83-6.04s.69,1.96.69,1.96c0,0,4.46-4.72,5.2-5.09.74-.37.64,1.64,1.33,1.01.13-.12.43-.43.84-.86.03-.03.06-.07.1-.1.13-.14.27-.29.42-.44.09-.1.19-.19.28-.29.06-.07.13-.13.19-.2.1-.1.2-.21.3-.31.07-.07.13-.13.2-.2.12-.12.24-.25.36-.37.05-.05.09-.1.14-.15.17-.17.34-.34.51-.51.04-.04.08-.08.12-.12.13-.13.26-.26.4-.39.05-.05.11-.1.16-.16.12-.11.23-.22.34-.33.06-.05.11-.11.17-.16.12-.11.23-.21.34-.31.04-.04.08-.08.12-.11.15-.13.29-.26.42-.37.02-.02.04-.03.06-.05.11-.09.21-.17.3-.24.04-.03.07-.05.1-.07.07-.05.14-.09.2-.13.03-.02.06-.04.09-.05.05-.03.1-.04.14-.05.02,0,.04-.01.06-.01.05,0,.09,0,.11.05.02.04.03.1.03.18,0,.03,0,.06,0,.09,0,.06,0,.12-.01.2,0,.04-.01.09-.02.14-.01.08-.02.15-.04.24-.01.06-.02.12-.04.19-.02.08-.04.17-.06.27-.02.08-.04.16-.06.24-.02.09-.05.18-.07.27-.16.61-.38,1.31-.64,2.05,0,.02-.01.04-.02.06-.07.2-.15.4-.22.61,0,.01,0,.02-.01.03-.49,1.29-1.07,2.63-1.68,3.69,0,0,0,0,0,0-.29.5-.58.94-.86,1.28-1.91,2.28-8.08,6.15-9.14,7.95-1.06,1.8-1.03,13.06-2.65,20.61-.52,2.44-2.79,7.62-4.62,11.9-.16.38-.32.75-.48,1.12-.06.14-.11.27-.17.4-.17.4-.33.79-.49,1.16-.09.22-.18.43-.26.64-.06.15-.11.28-.17.42-.08.2-.16.39-.23.57-.05.13-.1.25-.14.37-.07.17-.12.33-.18.49-.04.1-.07.21-.11.3-.05.15-.09.29-.13.41-.02.07-.04.14-.06.2-.04.17-.08.32-.08.42,0,.15,0,.33.02.52l-82.81,82.93c-1.1,22.21-2.93,38.48-5.9,40.9-10.57,8.63-48.04,20.14-48.04,20.14,0,0-20.18,26.85-34.59,32.61-14.41,5.75-39.4,26.85-39.4,26.85l433.48-27.33c-2.53-6.07-5.97-16.36-10.69-33.08-11.28-39.96-12.29-53.82-7.72-67.18Zm-159-107.67c-.06.26-.14.47-.23.67-.02.04-.03.07-.05.11-.1.19-.2.36-.33.5-.01.02-.03.03-.05.05-.27.3-.59.52-.93.69h0c-.16.08-.32.15-.49.2-.9.32-5.89,2.12-5.89,2.12,0,0,1.54.11,2.02,1.01.48.9-1.65,6.47-1.65,6.47l1.96-1.75c2.6,3.34,2.65,14.2,2.65,16.06,0,1.15.28,2.6.6,3.7-2.37.49-3.99.81-4.34.81-1.59,0-1.75,0-10.35,4.93-2.3,1.32-5.65,2.46-9.3,3.43-.9-.23-1.76-.41-2.3-.58-1.59-.48-2.17-2.77-3.35-8.64-.42-2.12,7.38-17.28,7.97-18.23.58-.95,3.03-9.38,4.41-11.13.96-1.22,9.87-7.3,15.43-10.58.04-.02.07-.04.11-.06.74-.43,1.41-.82,2-1.13.04-.02.09-.05.13-.07.28-.15.54-.28.77-.39.03-.01.06-.03.09-.04.21-.1.39-.18.56-.24.03-.01.06-.02.08-.03.17-.06.3-.1.41-.12.02,0,.04,0,.06,0,.1-.01.18-.01.22.03.8.79.11,10.86-.21,12.24Zm55.5,11.16c-1.07,1.39-2.75,1.78-3.25,1.73-2.04,1.05-3.94,1.89-5.6,2.17-5.73.95-14.5,9.06-19.28,9.06-1.46,0-5.07.61-9.42,1.46-.26-.87-.68-1.72-1.18-2.31-1.17-1.38-6.05-.32-7.38-2.44-1.33-2.12-1.12-9.43-.53-11.82.58-2.38,4.19-5.72,10.04-9.75.02-.01.03-.02.05-.04,5.38-3.73,9-8.43,10.76-10.83.14-.19.27-.37.39-.53,1.59-2.17,3.88-15.16,5.04-19.66,1.17-4.5,7.43-9.8,7.49-8.32.05,1.48-1.63,2.85-1.63,2.85,2.39.44,3.97-.41,3.97-.41l-.78,2.64,4.92-2.21c-.37,1.11.05,2.14.05,2.14,1.12-2.54,7.18-4.5,7.18-4.5,0,0,0,.14.02.4.01.2.03.46.05.79,0,.05,0,.1,0,.15.02.38.05.84.08,1.36,0,0,0,0,0,.01.03.51.06,1.08.09,1.7,0,.06,0,.11,0,.17.01.2.02.4.03.6,0,.04,0,.08,0,.13.25,4.54.59,11.06.76,15.79,0,0,0,0,0,.01.1,2.87.14,5.08.06,5.75-.27,2.12-.7,7.11-.69,9.31,0,.2,0,.37.01.52,0,.02,0,.05,0,.07,0,.15.02.27.04.35.01.05.04.13.07.21.01.03.03.07.04.1.02.07.05.14.09.22.02.05.04.11.07.17.03.08.07.16.1.25.03.07.06.15.1.23.03.06.06.13.09.2.18.41.39.87.63,1.39,0,.01,0,.02.01.03.09.19.18.39.28.6,1.19,2.51,2.78,5.71,3.63,7.13-2.2.87-4.36,2.01-6.42,3.12Zm21.2-7.03c-.38-.11-.76-.22-1.09-.34-1.67-.64-2.71-1.75-3.82-3.26-1.12-1.51-2.55-2.62-2.23-6.36.22-2.53.84-15.14,1.29-23.65,0-.12.01-.25.02-.37.01-.24.02-.47.04-.7,0-.04,0-.08,0-.12.01-.22.02-.44.03-.65,0-.13.01-.26.02-.39.01-.25.03-.49.04-.72.01-.19.02-.38.03-.57,0-.12.01-.24.02-.36,0-.14.02-.27.02-.41,0-.13.01-.27.02-.39.01-.2.02-.39.03-.57,0-.08,0-.16.01-.24.01-.17.02-.34.03-.49,0-.07,0-.13.01-.19,0-.15.02-.29.03-.42,0-.04,0-.09,0-.13.01-.17.02-.31.03-.45,0-.03,0-.05,0-.07,0-.1.01-.2.02-.28,0-.03,0-.06,0-.08,0-.09.01-.17.02-.22.21-1.91,1.06-4.5,1.22-2.81.16,1.7,1.13,2.57,1.13,2.57.91-1.69,2.01-2.85,2.32-2.57.9.83,2.38,3.4,2.38,3.4.07-.35.14-.69.21-1.01.03-.12.05-.22.08-.34.05-.2.09-.4.14-.59.03-.13.07-.26.1-.38.04-.15.08-.31.13-.46.04-.14.08-.27.12-.4.04-.12.07-.24.11-.35.05-.14.09-.28.14-.41.03-.09.06-.18.1-.27.05-.14.1-.28.16-.41.02-.06.05-.12.07-.18.06-.14.12-.28.18-.41.01-.03.03-.06.04-.09.8-1.77,1.53-2.34,1.62-1.96.16.64-.74,6.31-.53,8.64.21,2.33,2.18,11.5,2.28,14.47.11,2.97.16,15.32.27,16.43.08.81,1.72,3.39,2.88,4.76-4.81.98-7.47,2.52-9.75,3.83Z"/>
    </g>
  </g>
</svg>